# xmcd
#
# Track frame offsets:
#	150
#	35072
#	69782
#	94320
#	120647
#	144740
#	166362
#	186950
#	217597
#	249162
#
# Disc length: 3495 seconds
#
# Revision: 1
# Processed by: cddbd v1.5.2PL0 Copyright (c) Steve Scherf et al.
# Submitted via: audiograbber 1.83.01
#
DISCID=860da50a
DTITLE=Big Voice Odom - Going to California
DYEAR=1976
DGENRE=Blues
TTITLE0=Going to California
TTITLE1=I don't know
TTITLE2=Thrill is Gone
TTITLE3=Stormy Monday Blues
TTITLE4=All for Business
TTITLE5=Rock me Baby
TTITLE6=Wonder Why
TTITLE7=Sitting here Wondering
TTITLE8=I can't go the Way
TTITLE9=Mojo Working
EXTD=
EXTT0=
EXTT1=
EXTT2=
EXTT3=
EXTT4=
EXTT5=
EXTT6=
EXTT7=
EXTT8=
EXTT9=
PLAYORDER=
